<svg aria-hidden="true" style="width:0;height:0;position:absolute" xmlns="http://www.w3.org/2000/svg" overflow="hidden"><defs><symbol id="logo" viewBox="0 0 24 24"><path d="m2.96 15.06 8.08-13.07.48-.5L17.7 5.6l.04 2.49 1.5 2.46L12.6 21.1l-9.63-6.04Z"/><path stroke="#FD9222" stroke-linecap="round" stroke-linejoin="round" stroke-width="2" d="M16.23 17.91 5.59 11.26m2.93-4.81 10.64 6.65M7.97 19.4l8.8-14.44m3.61 6.13c-2.28-1.42-3.17-2.54-1.7-4.94l-7.23-4.51-8.8 14.43 10.64 6.65 7.1-11.63Z"/></symbol><symbol id="instagram" viewBox="0 0 24 24"><path d="M17 2H7a5 5 0 0 0-5 5v10a5 5 0 0 0 5 5h10a5 5 0 0 0 5-5V7a5 5 0 0 0-5-5Z" stroke-width="2" stroke-linecap="round" stroke-linejoin="round"/><path d="M16 11.37a4 4 0 1 1-7.914 1.174A4 4 0 0 1 16 11.37Z" stroke-width="2" stroke-linecap="round" stroke-linejoin="round"/><path d="M16 11.37a4 4 0 1 1-7.914 1.174A4 4 0 0 1 16 11.37ZM17.5 6.5h.01M17.5 6.5h.01" stroke-width="2" stroke-linecap="round" stroke-linejoin="round"/></symbol><symbol id="twitter" viewBox="0 0 24 24"><path stroke-linecap="round" stroke-linejoin="round" stroke-width="2" d="M23 3a10.9 10.9 0 0 1-3.14 1.53 4.48 4.48 0 0 0-7.86 3v1A10.6 10.6 0 0 1 6.93 7.4C5.36 6.6 3.51 4.72 2.5 3.28 2.5 3.28-1 13 8 17a11.64 11.64 0 0 1-7 2c9 5 20 0 20-11.5 0-.28-.03-.56-.08-.83A7.72 7.72 0 0 0 23 3Z"/></symbol><symbol id="icon-menu" viewBox="0 0 32 32">`<path d="M4 16h24M4 8h24M4 24h24" stroke="#111" stroke-width="2.5" stroke-linecap="round" stroke-linejoin="round"/></symbol><symbol id="menu-close" viewBox="0 0 16 16">`<path d="M14.667 1.333 1.333 14.667m0-13.334 13.334 13.334" stroke-width="2" stroke-linecap="round" stroke-linejoin="round"/></symbol><symbol id="instagram-1" viewBox="0 0 24 24"><path d="M17 2H7a5 5 0 0 0-5 5v10a5 5 0 0 0 5 5h10a5 5 0 0 0 5-5V7a5 5 0 0 0-5-5Z" stroke-width="2" stroke-linecap="round" stroke-linejoin="round"/><path d="M16 11.37a4 4 0 1 1-7.914 1.174A4 4 0 0 1 16 11.37Z" stroke-width="2" stroke-linecap="round" stroke-linejoin="round"/><path d="M16 11.37a4 4 0 1 1-7.914 1.174A4 4 0 0 1 16 11.37ZM17.5 6.5h.01M17.5 6.5h.01" stroke-width="2" stroke-linecap="round" stroke-linejoin="round"/></symbol><symbol id="twitter-1" viewBox="0 0 24 24"><path d="M23 3a10.9 10.9 0 0 1-3.14 1.53 4.48 4.48 0 0 0-7.86 3v1a10.66 10.66 0 0 1-5.069-1.135c-1.57-.79-3.42-2.672-4.431-4.11C2.5 3.285-1 13 8 17a11.64 11.64 0 0 1-7 2c9 5 20 0 20-11.5 0-.279-.028-.556-.08-.83A7.72 7.72 0 0 0 23 3Z" stroke-width="2" stroke-linecap="round" stroke-linejoin="round"/></symbol></defs></svg>