<svg aria-hidden="true" style="position:absolute;width:0;height:0" xmlns="http://www.w3.org/2000/svg" overflow="hidden">   
    <defs>
        <symbol id="logo" viewBox="0 0 24 24">
            <path  d="m2.96 15.06 8.08-13.07.48-.5L17.7 5.6l.04 2.49 1.5 2.46L12.6 21.1l-9.63-6.04Z"/>
            <path stroke="#FD9222" stroke-linecap="round" stroke-linejoin="round" stroke-width="2" d="M16.23 17.91 5.59 11.26m2.93-4.81 10.64 6.65M7.97 19.4l8.8-14.44m3.61 6.13c-2.28-1.42-3.17-2.54-1.7-4.94l-7.23-4.51-8.8 14.43 10.64 6.65 7.1-11.63Z"/>  
        </symbol>
        <symbol id="instagram" viewBox="0 0 24 24">
             <path d="M17 2H7C4.23858 2 2 4.23858 2 7V17C2 19.7614 4.23858 22 7 22H17C19.7614 22 22 19.7614 22 17V7C22 4.23858 19.7614 2 17 2Z" s stroke-width="2" stroke-linecap="round" stroke-linejoin="round"/>
            <path d="M16 11.3701C16.1234 12.2023 15.9813 13.0523 15.5938 13.7991C15.2063 14.5459 14.5931 15.1515 13.8416 15.5297C13.0901 15.908 12.2384 16.0397 11.4078 15.906C10.5771 15.7723 9.80976 15.3801 9.21484 14.7852C8.61991 14.1903 8.22773 13.4229 8.09406 12.5923C7.9604 11.7616 8.09206 10.91 8.47032 10.1584C8.84858 9.40691 9.45418 8.7938 10.201 8.4063C10.9478 8.0188 11.7978 7.87665 12.63 8.00006C13.4789 8.12594 14.2648 8.52152 14.8717 9.12836C15.4785 9.73521 15.8741 10.5211 16 11.3701Z" stroke-width="2" stroke-linecap="round" stroke-linejoin="round"/>
            <path d="M16 11.3701C16.1234 12.2023 15.9813 13.0523 15.5938 13.7991C15.2063 14.5459 14.5931 15.1515 13.8416 15.5297C13.0901 15.908 12.2384 16.0397 11.4078 15.906C10.5771 15.7723 9.80976 15.3801 9.21484 14.7852C8.61991 14.1903 8.22773 13.4229 8.09406 12.5923C7.9604 11.7616 8.09206 10.91 8.47032 10.1584C8.84858 9.40691 9.45418 8.7938 10.201 8.4063C10.9478 8.0188 11.7978 7.87665 12.63 8.00006C13.4789 8.12594 14.2648 8.52152 14.8717 9.12836C15.4785 9.73521 15.8741 10.5211 16 11.3701Z"  stroke-width="2" stroke-linecap="round" stroke-linejoin="round"/>
            <path d="M17.5 6.5H17.51"  stroke-width="2" stroke-linecap="round" stroke-linejoin="round"/>
            <path d="M17.5 6.5H17.51" stroke-width="2" stroke-linecap="round" stroke-linejoin="round"/>
        </symbol>
        <symbol id="twitter" viewBox="0 0 24 24">
            <path    stroke-linecap="round" stroke-linejoin="round" stroke-width="2" d="M23 3a10.9 10.9 0 0 1-3.14 1.53 4.48 4.48 0 0 0-7.86 3v1A10.6 10.6 0 0 1 6.93 7.4C5.36 6.6 3.51 4.72 2.5 3.28 2.5 3.28-1 13 8 17a11.64 11.64 0 0 1-7 2c9 5 20 0 20-11.5 0-.28-.03-.56-.08-.83A7.72 7.72 0 0 0 23 3Z"/>
        </symbol>
         <symbol id="icon-menu" viewBox="0 0 32 32">
           `<path d="M4 16H28M4 8H28M4 24H28" stroke="#111111" stroke-width="2.5" stroke-linecap="round" stroke-linejoin="round"/>
        </symbol>
        <symbol id="menu-close" viewBox="0 0 16 16">
          `<path d="M14.6667 1.33325L1.33334 14.6666M1.33334 1.33325L14.6667 14.6666" stroke-width="2" stroke-linecap="round" stroke-linejoin="round"/>
        </symbol>
        <symbol id="instagram-1" viewBox="0 0 24 24">
            <path d="M17 2H7C4.23858 2 2 4.23858 2 7V17C2 19.7614 4.23858 22 7 22H17C19.7614 22 22 19.7614 22 17V7C22 4.23858 19.7614 2 17 2Z" s stroke-width="2" stroke-linecap="round" stroke-linejoin="round"/>
            <path d="M16 11.3701C16.1234 12.2023 15.9813 13.0523 15.5938 13.7991C15.2063 14.5459 14.5931 15.1515 13.8416 15.5297C13.0901 15.908 12.2384 16.0397 11.4078 15.906C10.5771 15.7723 9.80976 15.3801 9.21484 14.7852C8.61991 14.1903 8.22773 13.4229 8.09406 12.5923C7.9604 11.7616 8.09206 10.91 8.47032 10.1584C8.84858 9.40691 9.45418 8.7938 10.201 8.4063C10.9478 8.0188 11.7978 7.87665 12.63 8.00006C13.4789 8.12594 14.2648 8.52152 14.8717 9.12836C15.4785 9.73521 15.8741 10.5211 16 11.3701Z" stroke-width="2" stroke-linecap="round" stroke-linejoin="round"/>
            <path d="M16 11.3701C16.1234 12.2023 15.9813 13.0523 15.5938 13.7991C15.2063 14.5459 14.5931 15.1515 13.8416 15.5297C13.0901 15.908 12.2384 16.0397 11.4078 15.906C10.5771 15.7723 9.80976 15.3801 9.21484 14.7852C8.61991 14.1903 8.22773 13.4229 8.09406 12.5923C7.9604 11.7616 8.09206 10.91 8.47032 10.1584C8.84858 9.40691 9.45418 8.7938 10.201 8.4063C10.9478 8.0188 11.7978 7.87665 12.63 8.00006C13.4789 8.12594 14.2648 8.52152 14.8717 9.12836C15.4785 9.73521 15.8741 10.5211 16 11.3701Z"  stroke-width="2" stroke-linecap="round" stroke-linejoin="round"/>
            <path d="M17.5 6.5H17.51"  stroke-width="2" stroke-linecap="round" stroke-linejoin="round"/>
            <path d="M17.5 6.5H17.51" stroke-width="2" stroke-linecap="round" stroke-linejoin="round"/>
        </symbol>
        <symbol id="twitter-1" viewBox="0 0 24 24">
            <path d="M23 3.00005C22.0424 3.67552 20.9821 4.19216 19.86 4.53005C19.2577 3.83756 18.4573 3.34674 17.567 3.12397C16.6767 2.90121 15.7395 2.95724 14.8821 3.2845C14.0247 3.61176 13.2884 4.19445 12.773 4.95376C12.2575 5.71308 11.9877 6.61238 12 7.53005V8.53005C10.2426 8.57561 8.50127 8.18586 6.93101 7.39549C5.36074 6.60513 3.51032 4.72313 2.5 3.2845C2.5 3.2845 -1 13 8 17C5.94053 18.398 3.48716 19.099 1 19C10 24 21 19 21 7.50005C20.9991 7.2215 20.9723 6.94364 20.92 6.67005C21.9406 5.66354 22.6608 4.39276 23 3.00005Z"  stroke-width="2" stroke-linecap="round" stroke-linejoin="round"/>
        </symbol>


    </defs>
</svg>
